<?xml version="1.0" encoding="UTF-8"?>
<patch>
	<chords>
		<chord number_of_notes="6">
			<note note_number="43" velocity="100" delay="0"/>
			<note note_number="50" velocity="100" delay="5"/>
			<note note_number="55" velocity="100" delay="7"/>
			<note note_number="59" velocity="100" delay="11"/>
			<note note_number="62" velocity="100" delay="14"/>
			<note note_number="67" velocity="110" delay="19"/>
		</chord>
		<chord green="true" number_of_notes="6"><note note_number="43" velocity="100" delay="19"/><note note_number="50" velocity="100" delay="14"/><note note_number="55" velocity="100" delay="11"/><note note_number="59" velocity="100" delay="7"/><note note_number="62" velocity="100" delay="3"/><note note_number="67" velocity="110" delay="0"/></chord><chord red="true" number_of_notes="5"><note note_number="48" velocity="100" delay="0"/><note note_number="55" velocity="100" delay="2"/><note note_number="59" velocity="100" delay="3"/><note note_number="64" velocity="100" delay="4"/><note note_number="67" velocity="110" delay="5"/></chord><chord green="true" red="true" number_of_notes="3"><note note_number="52" velocity="100" delay="0"/><note note_number="59" velocity="110" delay="0"/><note note_number="64" velocity="110" delay="0"/></chord><chord yellow="true" number_of_notes="1"><note note_number="59" velocity="110" delay="0"/></chord><chord green="true" yellow="true" number_of_notes="3"><note note_number="52" velocity="100" delay="0"/><note note_number="61" velocity="110" delay="0"/><note note_number="64" velocity="110" delay="0"/></chord></chords></patch>
