<?xml version="1.0" encoding="UTF-8"?>
<patch name="fin avveksling">
  <midi_configuration default_channel="1" />
  <banks>
    <bank>
      <chords>
        <chord>
          <note note_number="43" velocity="100" delay="0"/>
          <note note_number="50" velocity="100" delay="5"/>
          <note note_number="55" velocity="100" delay="7"/>
          <note note_number="59" velocity="100" delay="11"/>
          <note note_number="62" velocity="100" delay="14"/>
          <note note_number="67" velocity="110" delay="19"/>
        </chord>
        <chord green="true">
          <note note_number="43" velocity="100" delay="19"/>
          <note note_number="50" velocity="100" delay="14"/>
          <note note_number="55" velocity="100" delay="11"/>
          <note note_number="59" velocity="100" delay="7"/>
          <note note_number="62" velocity="100" delay="3"/>
          <note note_number="67" velocity="110" delay="0"/>
        </chord>
        <chord red="true">
          <note note_number="48" velocity="100" delay="0"/>
          <note note_number="55" velocity="100" delay="2"/>
          <note note_number="59" velocity="100" delay="3"/>
          <note note_number="64" velocity="100" delay="4"/>
          <note note_number="67" velocity="110" delay="5"/>
        </chord>
        <chord green="true" red="true">
          <note note_number="52" velocity="100" delay="0"/>
          <note note_number="59" velocity="110" delay="0"/>
          <note note_number="64" velocity="110" delay="0"/>
        </chord>
        <chord yellow="true">
          <note note_number="59" velocity="110" midi_channel="3" delay="0" string="1" legato="true" />
          <variations>
            <chord yellow="true" blue="true">
              <note note_number="61" velocity="110" midi_channel="3" delay="0" string="1" legato="true" />
            </chord>
          </variations>
        </chord>
        <chord blue="true">
          <note note_number="59" velocity="110" midi_channel="3" delay="0" string="1" />
          <variations>
            <chord yellow="true" blue="true">
              <note note_number="61" velocity="110" midi_channel="3" delay="0" string="1" />
            </chord>
          </variations>
        </chord>
        <chord green="true" yellow="true">
          <note note_number="52" velocity="100" delay="0"/>
          <note note_number="61" velocity="110" delay="0"/>
          <note note_number="64" velocity="110" delay="0"/>
        </chord>
      </chords>
    </bank>
    <bank>
      <sequences>
        <sequence>
          <chord>
            <note note_number="62" velocity="100" string="4" />
          </chord>
          <chord>
            <note note_number="74" velocity="100" string="2" />
          </chord>
          <chord>
            <note note_number="69" velocity="100" string="3" />
          </chord>
        </sequence>
        <sequence red="true">
          <chord>
            <note note_number="64" velocity="100" string="4" />
          </chord>
          <chord>
            <note note_number="74" velocity="100" string="2" />
          </chord>
          <chord>
            <note note_number="67" velocity="100" string="3" />
          </chord>
        </sequence>
        <sequence red="true" yellow="true">
          <chord>
            <note note_number="65" velocity="100" string="4" />
          </chord>
          <chord>
            <note note_number="74" velocity="100" string="2" />
          </chord>
          <chord>
            <note note_number="67" velocity="100" string="3" />
          </chord>
        </sequence>
        <sequence red="true" yellow="true" blue="true">
          <chord>
            <note note_number="76" velocity="100" string="1" />
          </chord>
          <chord>
            <note note_number="74" velocity="100" string="2" />
          </chord>
          <chord>
            <note note_number="67" velocity="100" string="3" />
          </chord>
          <chord>
            <note note_number="74" velocity="100" string="2" />
          </chord>
        </sequence>
        <sequence green="true" reset_to="1">
          <chord>
            <note note_number="42" velocity="100" string="7" midi_channel="3" />
            <note note_number="62" velocity="100" string="4" />
          </chord>
          <chord>
            <note note_number="74" velocity="100" string="2" />
          </chord>
          <chord>
            <note note_number="69" velocity="100" string="3" />
          </chord>
          <chord>
            <note note_number="62" velocity="100" string="4" />
          </chord>
        </sequence>
        <sequence green="true" red="true" reset_to="1">
          <chord>
            <note note_number="43" velocity="100" string="7" midi_channel="3" />
            <note note_number="64" velocity="100" string="4" />
          </chord>
          <chord>
            <note note_number="74" velocity="100" string="2" />
          </chord>
          <chord>
            <note note_number="67" velocity="100" string="3" />
          </chord>
          <chord>
            <note note_number="64" velocity="100" string="4" />
          </chord>
        </sequence>
        <sequence green="true" red="true" yellow="true" reset_to="1">
          <chord>
            <note note_number="46" velocity="100" string="7" midi_channel="3" />
            <note note_number="65" velocity="100" string="4" />
          </chord>
          <chord>
            <note note_number="74" velocity="100" string="2" />
          </chord>
          <chord>
            <note note_number="67" velocity="100" string="3" />
          </chord>
          <chord>
            <note note_number="65" velocity="100" string="4" />
          </chord>
        </sequence>
        <sequence green="true" red="true" yellow="true" blue="true" reset_to="1">
          <chord>
            <note note_number="45" velocity="100" string="7" midi_channel="3" />
            <note note_number="64" velocity="100" string="4" />
          </chord>
          <chord>
            <note note_number="74" velocity="100" string="2" />
          </chord>
          <chord>
            <note note_number="67" velocity="100" string="3" />
          </chord>
          <chord>
            <note note_number="64" velocity="100" string="4" />
          </chord>
          <chord>
            <note note_number="76" velocity="100" string="1" />
          </chord>
          <chord>
            <note note_number="74" velocity="100" string="2" />
          </chord>
          <chord>
            <note note_number="67" velocity="100" string="3" />
          </chord>
          <chord>
            <note note_number="74" velocity="100" string="2" />
          </chord>
        </sequence>
      </sequences>
    </bank>
  </banks>
</patch>
