<?xml version="1.0" encoding="UTF-8"?>
<patch midi_channel="10"><chords><chord number_of_notes="3"><note note_number="55" velocity="100"/><note note_number="62" velocity="110"/><note note_number="67" velocity="110"/></chord><chord green="true" number_of_notes="1"><note note_number="40" velocity="110"/></chord><chord red="true" number_of_notes="1"><note note_number="45" velocity="110"/></chord><chord green="true" red="true" number_of_notes="3"><note note_number="40" velocity="100"/><note note_number="47" velocity="110"/><note note_number="52" velocity="110"/></chord><chord yellow="true" number_of_notes="1"><note note_number="59" velocity="110"/></chord><chord green="true" yellow="true" number_of_notes="3"><note note_number="40" velocity="100"/><note note_number="49" velocity="110"/><note note_number="52" velocity="110"/></chord><chord red="true" yellow="true" number_of_notes="3"><note note_number="45" velocity="100"/><note note_number="52" velocity="110"/><note note_number="57" velocity="110"/></chord><chord green="true" red="true" yellow="true" number_of_notes="4"><note note_number="40" velocity="100"/><note note_number="47" velocity="110" delay="10"/><note note_number="52" velocity="110" delay="30"/><note note_number="55" velocity="110" delay="35"/></chord><chord blue="true" number_of_notes="1"><note note_number="55" velocity="110"/></chord><chord green="true" blue="true" number_of_notes="3"><note note_number="40" velocity="100"/><note note_number="50" velocity="110"/><note note_number="52" velocity="110"/></chord><chord red="true" blue="true" number_of_notes="3"><note note_number="45" velocity="100"/><note note_number="54" velocity="110"/><note note_number="57" velocity="110"/></chord><chord green="true" red="true" blue="true" number_of_notes="4"><note note_number="40" velocity="100"/><note note_number="47" velocity="110" delay="10"/><note note_number="52" velocity="110" delay="30"/><note note_number="56" velocity="110" delay="35"/></chord><chord yellow="true" blue="true" number_of_notes="3"><note note_number="59" velocity="100"/><note note_number="66" velocity="110"/><note note_number="71" velocity="110"/></chord><chord green="true" yellow="true" blue="true" number_of_notes="5"><note note_number="40" velocity="100"/><note note_number="47" velocity="110" delay="10"/><note note_number="52" velocity="110" delay="30"/><note note_number="56" velocity="110" delay="35"/><note note_number="62" velocity="110" delay="40"/></chord><chord red="true" yellow="true" blue="true" number_of_notes="4"><note note_number="45" velocity="100"/><note note_number="52" velocity="110" delay="7"/><note note_number="57" velocity="110" delay="12"/><note note_number="60" velocity="110"/></chord><chord green="true" red="true" yellow="true" blue="true" number_of_notes="5"><note note_number="40" velocity="100"/><note note_number="47" velocity="110" delay="10"/><note note_number="52" velocity="110" delay="30"/><note note_number="55" velocity="110" delay="35"/><note note_number="62" velocity="110" delay="40"/></chord><chord orange="true" number_of_notes="1"><note note_number="56" velocity="110"/></chord><chord red="true" orange="true" number_of_notes="3"><note note_number="45" velocity="100"/><note note_number="55" velocity="110"/><note note_number="57" velocity="110"/></chord><chord green="true" red="true" orange="true" number_of_notes="5"><note note_number="40" velocity="100"/><note note_number="47" velocity="110" delay="10"/><note note_number="52" velocity="110" delay="30"/><note note_number="54" velocity="110" delay="35"/><note note_number="0" velocity="0"/></chord><chord yellow="true" orange="true" number_of_notes="3"><note note_number="59" velocity="100"/><note note_number="68" velocity="110"/><note note_number="71" velocity="110"/></chord><chord green="true" yellow="true" orange="true" number_of_notes="5"><note note_number="40" velocity="100"/><note note_number="47" velocity="110" delay="10"/><note note_number="52" velocity="110" delay="30"/><note note_number="56" velocity="110" delay="35"/><note note_number="63" velocity="110" delay="40"/></chord><chord red="true" yellow="true" orange="true" number_of_notes="4"><note note_number="45" velocity="100"/><note note_number="52" velocity="110"/><note note_number="57" velocity="110"/><note note_number="61" velocity="110"/></chord><chord green="true" red="true" yellow="true" orange="true" number_of_notes="5"><note note_number="40" velocity="100"/><note note_number="47" velocity="110" delay="10"/><note note_number="52" velocity="110" delay="30"/><note note_number="55" velocity="110" delay="35"/><note note_number="63" velocity="110" delay="40"/></chord><chord blue="true" orange="true" number_of_notes="3"><note note_number="62" velocity="100"/><note note_number="69" velocity="110"/><note note_number="74" velocity="110"/></chord><chord red="true" blue="true" orange="true" number_of_notes="5"><note note_number="45" velocity="100"/><note note_number="52" velocity="110" delay="7"/><note note_number="57" velocity="110" delay="12"/><note note_number="61" velocity="110"/><note note_number="67" velocity="110"/></chord><chord green="true" red="true" blue="true" orange="true" number_of_notes="4"><note note_number="40" velocity="100"/><note note_number="47" velocity="110" delay="10"/><note note_number="52" velocity="110" delay="30"/><note note_number="57" velocity="110" delay="35"/></chord><chord red="true" yellow="true" blue="true" orange="true" number_of_notes="5"><note note_number="45" velocity="100"/><note note_number="52" velocity="110" delay="7"/><note note_number="57" velocity="110" delay="12"/><note note_number="60" velocity="110"/><note note_number="67" velocity="110"/></chord><chord green="true" red="true" yellow="true" blue="true" orange="true" number_of_notes="5"><note note_number="40" velocity="100"/><note note_number="44" velocity="110" delay="7"/><note note_number="50" velocity="110" delay="12"/><note note_number="54" velocity="110" delay="17"/><note note_number="59" velocity="110" delay="22"/></chord></chords></patch>
